<mxfile host="Electron" modified="2023-09-19T15:12:05.391Z" agent="Mozilla/5.0 (X11; Linux x86_64) AppleWebKit/537.36 (KHTML, like Gecko) draw.io/21.7.5 Chrome/114.0.5735.289 Electron/25.8.1 Safari/537.36" etag="UEHNWlVNHc8qtpkAzqEQ" version="21.7.5" type="device">
  <diagram name="Page-1" id="c46omYC1yzMDPf6IL_mS">
    <mxGraphModel dx="1311" dy="1208" grid="1" gridSize="10" guides="1" tooltips="1" connect="1" arrows="1" fold="1" page="1" pageScale="1" pageWidth="850" pageHeight="1100" math="0" shadow="0">
      <root>
        <mxCell id="0" />
        <mxCell id="1" parent="0" />
        <mxCell id="36F0uArg4tRiiCwbfqQl-7" style="edgeStyle=orthogonalEdgeStyle;rounded=0;orthogonalLoop=1;jettySize=auto;html=1;entryX=0;entryY=0.5;entryDx=0;entryDy=0;" edge="1" parent="1" source="36F0uArg4tRiiCwbfqQl-1" target="36F0uArg4tRiiCwbfqQl-4">
          <mxGeometry relative="1" as="geometry" />
        </mxCell>
        <mxCell id="36F0uArg4tRiiCwbfqQl-8" style="rounded=0;orthogonalLoop=1;jettySize=auto;html=1;exitX=1;exitY=0;exitDx=0;exitDy=0;entryX=-0.008;entryY=0.688;entryDx=0;entryDy=0;entryPerimeter=0;" edge="1" parent="1" source="36F0uArg4tRiiCwbfqQl-1" target="36F0uArg4tRiiCwbfqQl-2">
          <mxGeometry relative="1" as="geometry" />
        </mxCell>
        <mxCell id="36F0uArg4tRiiCwbfqQl-14" style="rounded=0;orthogonalLoop=1;jettySize=auto;html=1;" edge="1" parent="1" source="36F0uArg4tRiiCwbfqQl-1" target="36F0uArg4tRiiCwbfqQl-12">
          <mxGeometry relative="1" as="geometry" />
        </mxCell>
        <mxCell id="36F0uArg4tRiiCwbfqQl-1" value="&lt;font style=&quot;font-size: 18px;&quot;&gt;login&lt;/font&gt;" style="ellipse;whiteSpace=wrap;html=1;" vertex="1" parent="1">
          <mxGeometry x="90" y="320" width="120" height="80" as="geometry" />
        </mxCell>
        <mxCell id="36F0uArg4tRiiCwbfqQl-10" style="rounded=0;orthogonalLoop=1;jettySize=auto;html=1;entryX=0;entryY=0.5;entryDx=0;entryDy=0;exitX=1;exitY=0.5;exitDx=0;exitDy=0;" edge="1" parent="1" source="36F0uArg4tRiiCwbfqQl-2" target="36F0uArg4tRiiCwbfqQl-5">
          <mxGeometry relative="1" as="geometry" />
        </mxCell>
        <mxCell id="36F0uArg4tRiiCwbfqQl-17" style="edgeStyle=orthogonalEdgeStyle;rounded=0;orthogonalLoop=1;jettySize=auto;html=1;" edge="1" parent="1" source="36F0uArg4tRiiCwbfqQl-2" target="36F0uArg4tRiiCwbfqQl-4">
          <mxGeometry relative="1" as="geometry" />
        </mxCell>
        <mxCell id="36F0uArg4tRiiCwbfqQl-2" value="&lt;font style=&quot;font-size: 18px;&quot;&gt;create&lt;br&gt;game&lt;br&gt;&lt;/font&gt;" style="ellipse;whiteSpace=wrap;html=1;" vertex="1" parent="1">
          <mxGeometry x="320" y="200" width="120" height="80" as="geometry" />
        </mxCell>
        <mxCell id="36F0uArg4tRiiCwbfqQl-9" style="edgeStyle=orthogonalEdgeStyle;rounded=0;orthogonalLoop=1;jettySize=auto;html=1;exitX=1;exitY=0.5;exitDx=0;exitDy=0;" edge="1" parent="1" source="36F0uArg4tRiiCwbfqQl-4" target="36F0uArg4tRiiCwbfqQl-6">
          <mxGeometry relative="1" as="geometry" />
        </mxCell>
        <mxCell id="36F0uArg4tRiiCwbfqQl-16" style="rounded=0;orthogonalLoop=1;jettySize=auto;html=1;entryX=0.5;entryY=0;entryDx=0;entryDy=0;" edge="1" parent="1" source="36F0uArg4tRiiCwbfqQl-4" target="36F0uArg4tRiiCwbfqQl-12">
          <mxGeometry relative="1" as="geometry" />
        </mxCell>
        <mxCell id="36F0uArg4tRiiCwbfqQl-4" value="&lt;font style=&quot;font-size: 18px;&quot;&gt;join game&lt;br&gt;&lt;/font&gt;" style="ellipse;whiteSpace=wrap;html=1;" vertex="1" parent="1">
          <mxGeometry x="320" y="320" width="120" height="80" as="geometry" />
        </mxCell>
        <mxCell id="36F0uArg4tRiiCwbfqQl-5" value="&lt;font style=&quot;font-size: 18px;&quot;&gt;stop/delete the game&lt;br&gt;&lt;/font&gt;" style="ellipse;whiteSpace=wrap;html=1;" vertex="1" parent="1">
          <mxGeometry x="540" y="200" width="120" height="80" as="geometry" />
        </mxCell>
        <mxCell id="36F0uArg4tRiiCwbfqQl-6" value="&lt;font style=&quot;font-size: 18px;&quot;&gt;play&lt;br&gt;(submit moves)&lt;br&gt;&lt;/font&gt;" style="ellipse;whiteSpace=wrap;html=1;" vertex="1" parent="1">
          <mxGeometry x="540" y="320" width="120" height="80" as="geometry" />
        </mxCell>
        <mxCell id="36F0uArg4tRiiCwbfqQl-12" value="&lt;font style=&quot;font-size: 18px;&quot;&gt;logout/&lt;br&gt;quit the game&lt;/font&gt;" style="ellipse;whiteSpace=wrap;html=1;" vertex="1" parent="1">
          <mxGeometry x="310" y="470" width="140" height="100" as="geometry" />
        </mxCell>
      </root>
    </mxGraphModel>
  </diagram>
</mxfile>
